<?xml version="1.0" encoding="UTF-8" standalone="no"?>
<!-- Created with Inkscape (http://www.inkscape.org/) -->

<svg
   xmlns:dc="http://purl.org/dc/elements/1.1/"
   xmlns:cc="http://creativecommons.org/ns#"
   xmlns:rdf="http://www.w3.org/1999/02/22-rdf-syntax-ns#"
   xmlns:svg="http://www.w3.org/2000/svg"
   xmlns="http://www.w3.org/2000/svg"
   xmlns:sodipodi="http://sodipodi.sourceforge.net/DTD/sodipodi-0.dtd"
   xmlns:inkscape="http://www.inkscape.org/namespaces/inkscape"
   width="150"
   height="150"
   viewBox="0 0 150.00001 150.00001"
   id="svg2"
   version="1.1"
   inkscape:version="0.91 r13725"
   sodipodi:docname="jekyll.svg">
  <defs
     id="defs4" />
  <sodipodi:namedview
     id="base"
     pagecolor="#ffffff"
     bordercolor="#666666"
     borderopacity="1.0"
     inkscape:pageopacity="0.0"
     inkscape:pageshadow="2"
     inkscape:zoom="15.839192"
     inkscape:cx="72.861802"
     inkscape:cy="75.026926"
     inkscape:document-units="px"
     inkscape:current-layer="layer1"
     showgrid="false"
     units="px"
     fit-margin-top="0"
     fit-margin-left="0"
     fit-margin-right="0"
     fit-margin-bottom="0" />
  <metadata
     id="metadata7">
    <rdf:RDF>
      <cc:Work
         rdf:about="">
        <dc:format>image/svg+xml</dc:format>
        <dc:type
           rdf:resource="http://purl.org/dc/dcmitype/StillImage" />
        <dc:title />
      </cc:Work>
    </rdf:RDF>
  </metadata>
  <g
     inkscape:label="Layer 1"
     inkscape:groupmode="layer"
     id="layer1"
     transform="translate(-290.71429,-397.36221)">
    <path
       style="fill:#333333"
       inkscape:connector-curvature="0"
       d="m 389.59164,487.46517 0,0 c -0.43968,0 -0.87057,-0.0791 -1.28387,-0.23743 -1.73233,-0.65952 -2.64686,-2.54134 -2.17201,-4.28247 l -0.0176,-0.009 0.11432,-0.29898 8.80237,-22.8633 c 0.1319,-0.33416 0.0704,-1.14317 0.009,-1.59164 -0.0176,-0.10552 -0.0176,-0.20225 0.009,-0.29898 l 0.009,-0.0176 c 0.009,-0.0176 0.009,-0.0352 0.0176,-0.0528 0.1407,-0.36933 0.57158,-0.554 1.27507,-0.554 0.84418,0 2.01373,0.26381 3.20965,0.72108 1.00247,0.38691 1.917,0.87056 2.55893,1.35421 0.75625,0.57158 1.05523,1.08161 0.88815,1.52129 -0.009,0.0176 -0.0176,0.0352 -0.0264,0.0528 l -0.009,0.0176 c -0.044,0.0879 -0.10552,0.15829 -0.18466,0.21984 -0.38692,0.34295 -0.9585,0.92333 -1.05523,1.18714 l -8.9079,23.17987 -0.0176,-0.009 c -0.62435,1.19593 -1.84666,1.96097 -3.21845,1.96097 z m -2.75239,-4.67818 -0.0264,0.0616 c -0.56279,1.5125 0.20225,3.21845 1.71474,3.79883 0.34295,0.1319 0.6947,0.19346 1.05523,0.19346 1.22231,0 2.30392,-0.72987 2.75239,-1.87304 l 0.0352,-0.0791 8.7584,-22.76657 c 0.18466,-0.49244 1.05523,-1.27507 1.2311,-1.43335 l 0.0176,-0.0176 c 0.0176,-0.009 0.0264,-0.0176 0.0264,-0.0264 l 0.009,-0.009 c 0.009,-0.0616 -0.0704,-0.33416 -0.6859,-0.80901 -0.58917,-0.44848 -1.44214,-0.89695 -2.40064,-1.26628 -1.10799,-0.43088 -2.23357,-0.6859 -2.98982,-0.6859 -0.50123,0 -0.66831,0.10553 -0.69469,0.15829 l 0,0.009 c 0,0.009 0,0.0176 0,0.0352 l 0,0.009 c 0.0176,0.1319 0.18466,1.30145 -0.044,1.9082 l -8.7584,22.79296 z"
       id="tube_1_" />
    <path
       inkscape:connector-curvature="0"
       style="fill:#333333;fill-opacity:1"
       d="m 398.10382,468.30397 c 0,0 -1.21351,1.39817 -2.32151,1.89941 -1.10799,0.50123 -1.92579,0.36933 -2.91946,0.9497 -0.99368,0.58038 -1.49491,1.38939 -1.49491,1.38939 l -4.04505,10.52591 c -0.43968,1.18713 0.21105,2.57652 1.41577,3.04258 1.20472,0.46606 2.56772,-0.14949 3.03378,-1.32783 l 0,0 6.33138,-16.47916 z m -4.07143,6.07636 c 0.19346,-0.0879 0.42209,0 0.50124,0.19346 0.0879,0.19345 0,0.42209 -0.19346,0.50123 -0.19346,0.0879 -0.42209,0 -0.50124,-0.19346 -0.0967,-0.19346 0,-0.42209 0.19346,-0.50123 z m -1.62681,-1.73234 c 0.1319,-0.0528 0.2814,0 0.33416,0.13191 0.0528,0.1319 0,0.28139 -0.13191,0.33415 -0.1319,0.0528 -0.28139,0 -0.33415,-0.1319 -0.0528,-0.13191 0.009,-0.2814 0.1319,-0.33416 z m -1.7851,5.95325 c -0.19345,0.0879 -0.42209,0 -0.50123,-0.19345 -0.0879,-0.19346 0,-0.4221 0.19346,-0.50124 0.19346,-0.0879 0.42209,0 0.50123,0.19346 0.0967,0.19346 0.009,0.4133 -0.19346,0.50123 z m 0.36054,-1.38059 c -0.15828,-0.36053 0,-0.78263 0.36054,-0.9497 0.36053,-0.15829 0.78263,0 0.9497,0.36053 0.15829,0.36054 0,0.78263 -0.36053,0.94971 -0.36933,0.15828 -0.79142,0 -0.94971,-0.36054 z m 0.91453,3.64934 c 0.13191,-0.0528 0.2814,0 0.33416,0.1319 0.0528,0.1319 0,0.28139 -0.1319,0.33416 -0.13191,0.0528 -0.2814,0 -0.33416,-0.13191 -0.0528,-0.12311 0,-0.2726 0.1319,-0.33415 z"
       id="liquid_1_" />
    <ellipse
       style="fill:#333333"
       ry="2.4445286"
       rx="0.64190859"
       cy="537.32416"
       cx="-285.71622"
       transform="matrix(0.35901259,-0.93333272,0.93333272,0.35901259,0,0)"
       id="top_1_" />
    <path
       style="fill:#333333"
       inkscape:connector-curvature="0"
       id="jekyll-text"
       d="m 345.35115,471.22343 c 0.38692,0.30778 1.0904,0.13191 1.56526,-0.38691 0.49244,-0.54521 0.57158,-1.2399 0.18466,-1.55647 -0.38692,-0.30777 -1.0904,-0.1319 -1.56525,0.4133 -0.50124,0.554 -0.58917,1.22231 -0.18467,1.53008 z m -1.15196,1.01126 c -0.10552,0 -0.28139,0.18467 -0.1319,0.25502 0.21104,0.0791 0.30777,0.25501 0.30777,0.51882 -0.18466,1.06402 -1.5037,2.28633 -2.03131,2.69963 -0.13191,0.1319 0.0528,0.4133 0.18466,0.30777 0.2814,-0.22863 0.87936,-0.69469 1.3718,-1.31903 -0.80022,1.79389 -2.36547,4.0978 -2.96344,4.90681 -2.33909,3.24483 -5.89169,6.22585 -8.33631,6.22585 -1.95217,0 -3.60536,-1.31903 -3.9659,-3.27121 -0.0264,-0.21104 -0.30777,-0.25501 -0.25501,0.0264 0.43968,2.67325 2.49737,3.7021 4.98595,3.7021 2.72601,0 5.92688,-1.97855 7.68559,-3.99228 2.84912,-3.27121 4.70456,-7.02607 4.20333,-9.15412 -0.19346,-0.80021 -0.74745,-0.93212 -1.05523,-0.90574 z m 17.51681,7.11401 c 0.74745,-0.18467 1.3718,-0.59797 1.3718,-1.24869 0,-0.0616 -0.13191,-0.0616 -0.13191,0 0,0.38692 -0.43968,0.70349 -0.93212,0.78263 -1.16075,0.18466 -3.47346,-1.18713 -4.56386,-2.59411 1.16075,0.43968 3.5526,-0.20225 4.67818,-1.00246 1.03764,-0.74746 1.45094,-1.58285 1.53887,-2.25995 0.13191,-1.10799 -1.0904,-1.76751 -2.77877,-1.10799 -1.0904,0.43967 -2.39185,1.39817 -3.73727,3.19206 1.42456,-2.36547 4.22971,-6.19947 6.9821,-8.66167 3.35036,-2.98102 5.29374,-2.40944 2.28633,0.74745 -1.23989,1.29266 -3.57898,2.98103 -5.197,3.71089 -0.49244,0.21105 -0.25501,0.49244 0.10552,0.33416 1.71475,-0.74745 3.99229,-2.31271 5.37288,-3.60537 4.07143,-3.91314 0.6771,-6.86778 -3.84279,-2.72601 -3.06017,2.83154 -5.0651,5.78618 -6.79744,9.62018 -0.59796,0.72107 -1.03764,1.31903 -1.59164,1.79389 -0.0616,0.0528 -0.11431,0.11431 -0.15828,0.16708 -1.49491,1.28386 -3.85159,3.01619 -5.32012,3.04257 -1.03764,0.0264 -1.47732,-0.74745 -1.29265,-1.76751 0.28139,-1.58284 1.92579,-3.44708 3.32397,-4.0978 1.82027,-0.8266 2.88429,0.77383 0.49244,2.07528 -0.90574,0.46606 -2.00493,0.72107 -2.44461,0.72107 -0.51882,0 -0.46606,0.21105 -0.0264,0.22864 0.72107,0.0264 1.89941,-0.2814 2.67324,-0.65073 2.44462,-1.16075 2.59411,-3.34156 -0.0528,-3.4207 -2.88429,-0.10552 -6.33137,2.36547 -6.30499,5.45202 0.0264,1.39818 1.14316,2.15443 2.67324,2.15443 2.55014,-0.0264 4.82768,-1.96977 6.68312,-3.66693 0.26381,-0.21984 0.52762,-0.46606 0.78263,-0.72107 -0.65072,1.66199 -0.98488,3.19207 -0.82659,4.32644 0.10552,0.8266 0.57158,1.21351 0.93211,1.53008 0.0792,0.0528 0.22864,0 0.13191,-0.15828 -0.5452,-0.65073 -0.38692,-2.57652 0.36054,-4.43196 0.62434,1.2311 3.06016,2.81394 5.6103,2.24236 z m -3.06017,-5.40805 c 2.98102,-2.67325 4.15057,-0.2814 2.25995,1.16075 -0.98488,0.74745 -2.93705,1.31904 -3.5526,0.9585 l -0.13191,-0.0791 c -0.0791,-0.13191 -0.15828,-0.25502 -0.21104,-0.38692 0.49244,-0.59796 1.06402,-1.13437 1.6356,-1.65319 z m 16.55831,-3.02499 c 1.18713,0.1319 0.69469,-1.31904 -0.51882,-0.9585 -0.5452,0.15828 -1.06403,1.18713 -1.45094,2.10166 -1.18714,1.79389 -3.19207,4.22092 -4.59904,5.49599 -1.2399,1.06402 -2.39186,1.34542 -0.98488,-0.65073 0.57158,-0.80021 1.29265,-1.66198 1.71474,-2.51496 0.98488,-2.15443 -1.11678,-3.11293 -2.80515,-1.82027 -0.98488,0.74745 -2.31271,2.31271 -3.35035,3.16569 -0.2814,0.22863 -0.21105,0.57158 0.0791,0.33415 0.8266,-0.66831 2.28633,-2.20718 3.52623,-3.11292 1.03764,-0.80022 1.45094,-0.2814 0.85297,0.38691 -0.82659,0.9585 -2.28633,2.62049 -2.64686,3.68451 -0.51883,1.58285 0.10552,2.28633 1.13437,2.28633 1.42456,0 3.5526,-2.23357 4.98596,-3.99228 0.46605,-0.59796 0.98488,-1.29266 1.42455,-1.96976 -1.23989,2.40944 -2.54134,4.85405 -4.15056,7.05245 -2.28633,3.11292 -5.14425,5.45201 -7.84387,5.45201 -1.95218,0 -3.63175,-1.31903 -3.99229,-3.27121 -0.0264,-0.21104 -0.28139,-0.25501 -0.25501,0.0264 0.43968,2.67325 2.49737,3.7021 4.98596,3.7021 2.72601,0 5.34649,-1.58284 7.18435,-3.52622 3.71089,-3.92194 4.15936,-8.32752 5.29373,-10.78972 0.53641,-1.08161 1.02885,-1.13437 1.41577,-1.08161 z m 15.08978,-3.79003 c 0.5452,-0.93212 0.51882,-1.66199 -0.74746,-1.66199 -0.9585,0.0264 -2.69963,0.69469 -3.49984,1.31904 -0.18467,0.18466 -0.10552,0.28139 0.1319,0.18466 0.15829,-0.0528 0.33416,-0.15828 0.51882,-0.22863 0.90574,-0.49244 0.5452,0.5452 0.33416,0.93212 -1.0904,1.89941 -3.0074,4.56386 -4.01867,5.89169 -0.48364,0.65073 -1.02884,1.30145 -1.56525,1.85545 -0.97609,0.92332 -2.90188,2.56772 -4.35282,3.11293 -4.73095,1.7675 1.29265,-6.27862 1.79389,-6.92055 1.11678,-1.39818 3.60536,-3.834 4.35282,-5.05631 0.5452,-0.93212 0.51882,-1.66198 -0.74746,-1.66198 -0.9585,0.0264 -2.69962,0.69469 -3.49984,1.31903 -0.18467,0.18467 -0.10552,0.2814 0.1319,0.18467 0.15829,-0.0528 0.33416,-0.15829 0.51882,-0.22863 0.90574,-0.49244 0.54521,0.5452 0.33416,0.93212 -1.0904,1.89941 -3.0074,4.56386 -4.01866,5.89169 -0.8266,1.10799 -1.84666,2.23357 -2.62049,2.84912 -0.30778,0.25501 -0.1319,0.49244 0.18466,0.2814 0.2814,-0.18467 0.6947,-0.59797 1.16076,-1.09041 -0.85298,1.71475 -1.56526,4.12419 0.69469,4.40558 1.92579,0.26381 4.21212,-1.70595 5.68944,-3.15689 0.15829,-0.15828 0.34295,-0.33416 0.52762,-0.52762 0.044,-0.044 0.0879,-0.0879 0.1319,-0.1319 -0.85297,1.71475 -1.55646,4.1154 0.70349,4.39679 2.47099,0.33416 5.53116,-2.98102 6.71829,-4.19454 0.22863,-0.22863 0.15829,-0.62434 -0.22863,-0.22863 -0.69469,0.72107 -3.06017,2.8755 -4.78371,3.52622 -4.73094,1.76751 1.29266,-6.27861 1.79389,-6.92054 1.11679,-1.40697 3.61416,-3.84279 4.36162,-5.07389 z" />
  </g>
</svg>
