<svg
  xmlns="http://www.w3.org/2000/svg" viewBox="0 0 512 512">
  <path d="M178.354,287.478c-9.123,0-16.928,4.207-23.201,12.833c-6.291,8.478-9.398,18.973-9.398,31.431 c0,12.474,3.166,23.008,9.398,31.509c6.273,8.54,14.039,12.771,23.201,12.771c8.494,0,15.889-4.27,22.121-12.771 c6.271-8.501,9.398-19.035,9.398-31.509c0-12.419-3.166-22.93-9.398-31.431C194.242,291.724,186.908,287.478,178.354,287.478z"/> <path d="M334.668,287.478c-9.045,0-16.891,4.207-23.182,12.833c-6.271,8.478-9.359,18.973-9.359,31.431 c0,12.474,3.186,23.008,9.359,31.509c6.291,8.54,14.098,12.771,23.182,12.771c8.533,0,15.906-4.27,22.178-12.771 c6.293-8.501,9.418-19.035,9.418-31.509c0-12.419-3.164-22.93-9.418-31.431C350.574,291.724,343.299,287.478,334.668,287.478z"/> <path d="M445.777,172h-0.059c0,0,2.793-14.264,0.314-39.18c-2.182-24.916-7.471-47.838-16.123-68.82 c0,0-4.422,0.76-12.76,2.896s-22.08,6.299-40.938,14.768c-18.541,8.54-37.986,19.788-58.297,33.505 c-13.803-3.934-34.408-5.939-61.994-5.939c-26.289,0-46.914,2.012-61.977,5.945c-44.592-30.859-81.832-47.945-112.092-51.175 c-8.594,20.982-13.883,43.991-16.045,68.97c-2.398,24.939,0.432,39.329,0.432,39.329C41.979,198.551,32,236.541,32,267.793 c0,24.244,0.658,46.078,6.125,65.48c5.564,19.31,12.662,35.13,21.098,47.221c8.611,12.121,19.012,22.788,31.576,31.938 c12.467,9.314,23.988,15.962,34.389,20.216c10.461,4.372,22.375,7.602,35.982,9.861c13.33,2.386,23.438,3.645,30.477,3.996 c0,0,28,1.494,64.354,1.494c36.354,0,64.295-1.494,64.295-1.494c7.02-0.352,17.145-1.634,30.535-3.996 c13.547-2.299,25.521-5.607,35.941-9.861c10.402-4.293,21.943-10.901,34.469-20.216c12.523-9.032,22.906-19.739,31.518-31.938 c8.436-12.091,15.494-27.911,21.098-47.221c5.486-19.402,6.145-41.385,6.145-65.629C480,237.389,469.982,199,445.777,172z M380.383,405.645C352.521,418.736,311.486,424,257.061,424l-2.143-0.039c-54.443,0-95.361-5.248-122.848-18.41 c-27.508-13.092-41.271-40.057-41.271-80.738c0-24.33,8.572-43.99,25.482-59.107c7.354-6.515,16.438-11.019,27.645-13.717 c11.129-2.558,21.354-2.762,30.969-2.465c9.398,0.415,22.551,2.196,39.344,3.464C231.029,254.285,243.535,256,256,256 c11.698,0,27.213-1.957,52.104-3.959c24.99-1.971,43.494-2.971,55.467-1c12.289,2.002,22.986,6.202,32.129,14.742 c17.734,15.751,26.602,35.505,26.602,59.084C422.301,365.533,408.164,392.537,380.383,405.645z"/>

  <!-- <path d="M256 32C132.3 32 32 134.9 32 261.7c0 101.5 64.2 187.5 153.2 217.9 1.4.3 2.6.4 3.8.4 8.3 0 11.5-6.1 11.5-11.4 0-5.5-.2-19.9-.3-39.1-8.4 1.9-15.9 2.7-22.6 2.7-43.1 0-52.9-33.5-52.9-33.5-10.2-26.5-24.9-33.6-24.9-33.6-19.5-13.7-.1-14.1 1.4-14.1h.1c22.5 2 34.3 23.8 34.3 23.8 11.2 19.6 26.2 25.1 39.6 25.1 10.5 0 20-3.4 25.6-6 2-14.8 7.8-24.9 14.2-30.7-49.7-5.8-102-25.5-102-113.5 0-25.1 8.7-45.6 23-61.6-2.3-5.8-10-29.2 2.2-60.8 0 0 1.6-.5 5-.5 8.1 0 26.4 3.1 56.6 24.1 17.9-5.1 37-7.6 56.1-7.7 19 .1 38.2 2.6 56.1 7.7 30.2-21 48.5-24.1 56.6-24.1 3.4 0 5 .5 5 .5 12.2 31.6 4.5 55 2.2 60.8 14.3 16.1 23 36.6 23 61.6 0 88.2-52.4 107.6-102.3 113.3 8 7.1 15.2 21.1 15.2 42.5 0 30.7-.3 55.5-.3 63 0 5.4 3.1 11.5 11.4 11.5 1.2 0 2.6-.1 4-.4C415.9 449.2 480 363.1 480 261.7 480 134.9 379.7 32 256 32z" /> -->
</svg>
