<svg id="Layer_1" data-name="Layer 1" xmlns="http://www.w3.org/2000/svg" viewBox="0 0 792 792"><title>Artboard 1</title><path d="M325.1922,419.4277c11.49,11.7778,26.6461,19.9282,43.8154,24.2913a130.2987,130.2987,0,0,0,30.56,3.8849,157.578,157.578,0,0,0,16.1773-.669c2.5664-.236,5.1226-.5371,7.6733-.8737q2.0023-.2641,3.994-.579a7.2022,7.2022,0,0,1,1.9427-.3069c-.3494-.1169-.0064-.0375.329-.1122.3242-.0721.6618-.1208.9889-.18a22.2041,22.2041,0,0,0,2.4849-.6423,106.0017,106.0017,0,0,0,11.1258-4.0012,201.4351,201.4351,0,0,0,23.8068-12.4332c15.0482-8.981,29.49-18.8442,42.3405-30.06,25.0227-21.84,44.5308-48.41,54.4974-77.8548a153.8387,153.8387,0,0,0,5.358-20.3246c.2689-1.4022.5255-2.8063.7881-4.2094.0475-.254.0588-1.4262.3007-1.581a6.7466,6.7466,0,0,1,1.9253,0H608.612c1.0159,0,.9582-.1428,1.3376.4154.5668.834.3516,3.0564.4419,4.0121.1751,1.8541.2779,3.7172.3644,5.5759a132.9124,132.9124,0,0,1-5.86,44.2344c-8.8791,29.5843-16.432,5.9426-20.5689,36.1982-5.3253,38.947-86.279,98.6245-208.5522,91.6989-60.4713-3.4252-86.4265-25.7785-134.5721-71.8893-23.7433-22.74,9.9439-56.6944,7.4936-86.6763C248.1189,310.2848,313.3865,407.3266,325.1922,419.4277Z" style="fill:#f1eeee"/><path d="M306.73,409.73a89.6162,89.6162,0,0,0,43.8153,28.4619,112.3312,112.3312,0,0,0,30.56,4.552,134.6149,134.6149,0,0,0,16.1773-.7839c2.5664-.2764,5.1226-.6292,7.6733-1.0236q2.0023-.31,3.994-.6785c.3219-.0591,1.5722-.5048,1.9427-.36-.3494-.1371-.0064-.044.329-.1315.3242-.0845.6618-.1416.9889-.2115a19.6257,19.6257,0,0,0,2.4849-.7527,96.3241,96.3241,0,0,0,11.1258-4.6881,192.969,192.969,0,0,0,23.8069-14.568c15.0481-10.523,29.49-22.08,42.34-35.2213,25.0227-25.59,44.5309-56.7219,54.4974-91.2223a205.6006,205.6006,0,0,0,5.3581-23.8142c.2689-1.6431.5254-3.2882.788-4.9322.0476-.2976.0588-1.6711.3007-1.8524.2877-.2157,1.5825,0,1.9253,0H590.15c1.016,0,.9582-.1674,1.3376.4867.5668.9771.3517,3.5812.4419,4.7009.1752,2.1725.2779,4.3555.3644,6.5333a180.8489,180.8489,0,0,1-5.86,51.8293c-8.8791,34.6638-16.432-1.551-20.5689,33.8994-5.3253,45.6341-91.0232,115.9572-190.09,115.9572-60.5682,0-104.889-18.5855-153.0346-72.6134-23.7433-26.6441,9.9439-78.0476,7.4936-113.1774C229.6564,281.8473,294.9241,395.551,306.73,409.73Z" style="fill:#ff5a3c"/><path d="M555.5459,240.6824c-1.0017,14.72-1.7568,29.4084-4.0617,44.0272a212.0723,212.0723,0,0,1-14.43,50.4784c-6.9218,16.2091-4.9876-10.4827-18.915,1.76-13.7052,12.0469-28.3467,61.4578-141.7165,61.4578S231.4909,265.9374,231.4909,233.3117c0-9.2617-18.5234,7.5853-27.7851,7.5853H192.599c-.3369,0-1.25-.125-1.49.05-.4811.3513-.3984,3.3252-.46,3.8939-.2247,2.0709-.3412,4.1484-.4588,6.226-.9483,16.7577,1.8273,27.3895,7.0642,43.4465,10.8,33.1148,32.9364,69.0013,60.8094,92.3793,28.4011,23.821,63.3007,42.4671,102.0926,47.5437a143.55,143.55,0,0,0,26.9919,1.0335,157.0556,157.0556,0,0,0,17.5861-2.3342,386.1422,386.1422,0,0,0,57.6584-14.4919,315.1936,315.1936,0,0,0,54.1888-24.1806c16.61-9.4,32.012-20.6085,44.193-34.5687,12.2654-14.0569,20.7208-30.3953,26.5264-47.443a189.7477,189.7477,0,0,0,9.7054-49.27c.2645-4.25.4071-8.4971.4528-12.7531.0189-1.7723-.02-3.5379-.074-5.31-.0158-.5241.2857-3.6651-.1425-4.0073-.2372-.19-1.5525-.016-1.8543-.0191l-4.8753-.05-28.8038-.2965Z" style="fill:#f1eeee"/><path d="M386.8286,386.6241c47.4269-8.3884,98.1937-33.6786,112.5052-44.8946,27.8679-21.84,49.5941-48.41,60.6939-77.8548A141.4044,141.4044,0,0,0,565.995,243.55c.2995-1.4022.5852-2.8063.8777-4.2094.0529-.254.0655-1.4262.3348-1.581a8.36,8.36,0,0,1,2.1443,0h39.3263c1.1315,0,1.0671-.1428,1.49.4154.6313.834.3916,3.0564.4922,4.012.195,1.8542.31,3.7173.4058,5.576a120.2775,120.2775,0,0,1-6.5268,44.2344c-9.8886,29.5843-18.3,5.9426-22.9076,36.1982-5.9308,38.947-119.1345,96.6983-211.7032,96.6983-67.4549,0-112.6562-49.9969-166.2761-96.1078C177.2091,306.0464,268.8293,407.4948,386.8286,386.6241Z" style="fill:#9cb9f6"/><path d="M556.1061,166.98s-.3949,2.7341-1.1373,7.5611c0,0-1.1432,6.8008-3.7625,20.9694-1.95,10.5471-11.8847,50.394-20.319,73.187-11.93,32.2406-39.3458,106.3463-107.92,137.4568-13.7942,6.2582-48.6693,21.48-89.0339,10.3714-31.6674-8.715-52.177-29.6353-61.8515-41.6789-30.0743-37.44-37.1287-74.4783-37.1287-177.3041V166.98H166.98V625.02H232.413V360.5141a216.9773,216.9773,0,0,0,59.6849,61.55c11.32,7.75,35.2385,23.7813,70.98,31.4258a186.0654,186.0654,0,0,0,63.772,2.6127c57.9489-8.1553,93.8886-42.7722,104.0193-52.829a190.604,190.604,0,0,0,28.718-36.51V625.02H625.02V166.98Z" style="fill:#231f20"/></svg>