<svg id="Layer_1" data-name="Layer 1" xmlns="http://www.w3.org/2000/svg" viewBox="0 0 792 792"><title>Artboard 2</title><path d="M443.5786,255.2633s-2.2819,17.6013-7.9066,31.89c-3.9478,10.0288-12.3356,33.3415-33.8347,43.0952-4.3247,1.962-15.2587,6.7343-27.9137,3.2516a36.82,36.82,0,0,1-19.3915-13.0671c-11.3674-15.6641-11.6406-48.8416-11.6406-62.1962v-2.9737H321.5806V398.8669h20.5145V316.4a67.53,67.53,0,0,0,18.7122,18.8364,60.7994,60.7994,0,0,0,22.2535,9.8526,56.1529,56.1529,0,0,0,52.6054-15.7437,59.7609,59.7609,0,0,0,9.0037-11.4466v80.9678h20.5144V255.2633Z" style="fill:#221f1f"/><path d="M146.5486,521.03V472.1649h8.1669l15.2879,37.4864h.1393l15.2879-37.4864h8.1678V521.03h-5.6543V480.2627h-.14L170.9812,521.03h-1.8153l-16.8237-40.7673h-.1393V521.03Z" style="fill:#221f1f"/><path d="M220.5436,522.077a15.6778,15.6778,0,0,1-12.077-5.1655q-4.7476-5.1654-4.7467-14.38,0-9.0745,4.8869-14.3111a15.7037,15.7037,0,0,1,11.9368-5.2355,15.31,15.31,0,0,1,11.7625,5.2355q4.7813,5.2356,4.7817,14.3111,0,9.2148-4.6775,14.38A15.3077,15.3077,0,0,1,220.5436,522.077Zm0-5.1655a9.6474,9.6474,0,0,0,7.7832-3.8049q3.1058-3.804,3.1067-10.5753t-3.0716-10.5763a9.62,9.62,0,0,0-7.8183-3.8039,10.0233,10.0233,0,0,0-8.0276,3.7348q-3.1422,3.7353-3.1418,10.6454t3.1418,10.6454A10.02,10.02,0,0,0,220.5436,516.9115Z" style="fill:#221f1f"/><path d="M271.0838,521.03v-3.56h-.1393a13.452,13.452,0,0,1-4.2938,3.1767,15.5593,15.5593,0,0,1-18.2192-3.874q-4.3635-5.3057-4.363-14.241,0-8.8642,4.5724-14.2059a14.4856,14.4856,0,0,1,11.4829-5.3407,12.8059,12.8059,0,0,1,10.2617,4.6074h.14v-17.521h5.7234V521.03Zm-.558-12.2864V497.2957a9.1459,9.1459,0,0,0-2.5827-6.3175,8.9053,8.9053,0,0,0-6.9116-2.8271q-5.5146,0-8.3763,3.7689-2.8632,3.77-2.8622,10.6113t2.8622,10.61q2.8617,3.77,8.3763,3.77a9.7613,9.7613,0,0,0,6.7713-2.4434A7.4712,7.4712,0,0,0,270.5258,508.7436Z" style="fill:#221f1f"/><path d="M313.7346,509.6513l4.6074,3.0015a18.3934,18.3934,0,0,1-5.9679,6.7372,16.3191,16.3191,0,0,1-9.5293,2.687,15.89,15.89,0,0,1-12.3556-5.34q-4.8162-5.3408-4.8168-14.2059t4.7116-14.2059a15.4944,15.4944,0,0,1,12.1822-5.3407,15.24,15.24,0,0,1,12.0069,5.2355q4.606,5.2356,4.6065,14.3111v1.6751H291.3969a14.4783,14.4783,0,0,0,2.9664,9.0054q2.8968,3.7,8.3422,3.7a12.5134,12.5134,0,0,0,3.9091-.5931,13.8349,13.8349,0,0,0,2.7921-1.1871,8.2762,8.2762,0,0,0,2.06-1.9546,21.1936,21.1936,0,0,0,1.3264-1.78Q313.0368,510.9773,313.7346,509.6513Zm-22.1985-9.9822h21.9891a13.5166,13.5166,0,0,0-2.7921-8.0978q-2.6542-3.42-8.1669-3.42-5.3772,0-8.1678,3.6647A13.0888,13.0888,0,0,0,291.5361,499.6691Z" style="fill:#221f1f"/><path d="M328.6037,521.03V484.0325h5.445v3.9783h.1392a7.7737,7.7737,0,0,1,3.281-3.42,9.0546,9.0546,0,0,1,4.398-1.1872,7.7233,7.7233,0,0,1,1.64.1753q.8021.1753,1.2223.3136l.3486.2094-1.0469,5.6543a6.3174,6.3174,0,0,0-2.9314-.558,5.819,5.819,0,0,0-5.1664,2.3383q-1.6068,2.34-1.6049,7.5046V521.03Z" style="fill:#221f1f"/><path d="M353.1055,521.03V484.0325H358.69v3.56h.14a11.0994,11.0994,0,0,1,4.397-3.3161,14.4516,14.4516,0,0,1,6.004-1.2913,13.0079,13.0079,0,0,1,9.6686,3.7q3.6637,3.7017,3.6647,10.0523V521.03H376.91V498.552q0-10.3308-8.5166-10.3318a9.77,9.77,0,0,0-6.9456,2.4435,8.81,8.81,0,0,0-2.6178,6.7713V521.03Z" style="fill:#221f1f"/><path d="M412.2318,521.03V472.1649h29.4587v5.3057H418.0254v17.6612H439.736v5.0953H418.0254V521.03Z" style="fill:#221f1f"/><path d="M473.2412,509.6513l4.6074,3.0015a18.3937,18.3937,0,0,1-5.968,6.7372,16.3187,16.3187,0,0,1-9.5293,2.687,15.89,15.89,0,0,1-12.3556-5.34q-4.8162-5.3408-4.8167-14.2059t4.7116-14.2059a15.4943,15.4943,0,0,1,12.1822-5.3407A15.24,15.24,0,0,1,474.08,488.22q4.6059,5.2356,4.6064,14.3111v1.6751H450.9034a14.4789,14.4789,0,0,0,2.9664,9.0054q2.8968,3.7,8.3422,3.7a12.5141,12.5141,0,0,0,3.9092-.5931,13.8375,13.8375,0,0,0,2.7921-1.1871,8.2777,8.2777,0,0,0,2.06-1.9546,21.17,21.17,0,0,0,1.3264-1.78Q472.5435,510.9773,473.2412,509.6513Zm-22.1985-9.9822h21.9891a13.5179,13.5179,0,0,0-2.7921-8.0978q-2.6544-3.42-8.1669-3.42-5.3773,0-8.1679,3.6647A13.088,13.088,0,0,0,451.0427,499.6691Z" style="fill:#221f1f"/><path d="M488.11,521.03V484.0325h5.4449v3.9783h.1393a7.7735,7.7735,0,0,1,3.2809-3.42,9.055,9.055,0,0,1,4.3981-1.1872,7.7247,7.7247,0,0,1,1.64.1753q.8019.1753,1.2222.3136l.3486.2094-1.0469,5.6543a6.3172,6.3172,0,0,0-2.9313-.558,5.8191,5.8191,0,0,0-5.1665,2.3383q-1.6068,2.34-1.6049,7.5046V521.03Z" style="fill:#221f1f"/><path d="M514.6367,510.2794V489.1279H509.47v-5.0954h5.3056V474.957h5.445v9.0755h9.1446v5.0954H520.291v20.4533q0,3.2824.9076,4.6074.9057,1.3278,3.63,1.3264H527.62v5.515h-3.0716q-5.2356,0-7.5739-2.6879Q514.6347,515.6558,514.6367,510.2794Z" style="fill:#221f1f"/><path d="M538.44,476.5629v-6.4918h6.562v6.4918Zm.4188,44.4671V484.0325h5.7244V521.03Z" style="fill:#221f1f"/><path d="M556.8687,521.03V470.0711h5.7936V521.03Z" style="fill:#221f1f"/><path d="M574.529,476.5629v-6.4918h6.5619v6.4918Zm.4187,44.4671V484.0325h5.7245V521.03Z" style="fill:#221f1f"/><path d="M594.284,510.2794V489.1279h-5.1664v-5.0954h5.3057V474.957h5.4449v9.0755h9.1447v5.0954h-9.0746v20.4533q0,3.2824.9077,4.6074.9057,1.3278,3.63,1.3264h2.7921v5.515h-3.0716q-5.2356,0-7.5738-2.6879Q594.282,515.6558,594.284,510.2794Z" style="fill:#221f1f"/><path d="M620.042,536.7367l7.3995-19.6158L613.55,484.0325h6.0029l10.4711,25.5487h.1393l9.4242-25.5487h5.8637l-19.8943,52.7042Z" style="fill:#221f1f"/></svg>