<?xml version="1.0" encoding="UTF-8" standalone="no"?>
<svg
   xmlns:dc="http://purl.org/dc/elements/1.1/"
   xmlns:cc="http://creativecommons.org/ns#"
   xmlns:rdf="http://www.w3.org/1999/02/22-rdf-syntax-ns#"
   xmlns:svg="http://www.w3.org/2000/svg"
   xmlns="http://www.w3.org/2000/svg"
   xmlns:xlink="http://www.w3.org/1999/xlink"
   xmlns:sodipodi="http://sodipodi.sourceforge.net/DTD/sodipodi-0.dtd"
   xmlns:inkscape="http://www.inkscape.org/namespaces/inkscape"
   width="220px"
   height="30px"
   viewBox="0 0 220 30"
   version="1.1"
   id="svg2"
   inkscape:version="0.91 r13725"
   sodipodi:docname="mf-wordmark.svg">
  <metadata
     id="metadata22">
    <rdf:RDF>
      <cc:Work
         rdf:about="">
        <dc:format>image/svg+xml</dc:format>
        <dc:type
           rdf:resource="http://purl.org/dc/dcmitype/StillImage" />
      </cc:Work>
    </rdf:RDF>
  </metadata>
  <sodipodi:namedview
     pagecolor="#ffffff"
     bordercolor="#666666"
     borderopacity="1"
     objecttolerance="10"
     gridtolerance="10"
     guidetolerance="10"
     inkscape:pageopacity="0"
     inkscape:pageshadow="2"
     inkscape:window-width="640"
     inkscape:window-height="480"
     id="namedview20"
     showgrid="false"
     inkscape:zoom="2.9585991"
     inkscape:cx="68.711674"
     inkscape:cy="-2.4042838"
     inkscape:current-layer="svg2" />
  <!-- Generator: Sketch 49.2 (51160) - http://www.bohemiancoding.com/sketch -->
  <title
     id="title4">logo/wordmark</title>
  <desc
     id="desc6">Created with Sketch.</desc>
  <defs
     id="defs8">
    <path
       d="M32.8468405,21.3675702 C34.3260444,21.3675702 35.5581475,20.7649694 36.5442835,19.5597678 C37.5304194,18.3545662 38.0234874,16.6911607 38.0234874,14.5684141 C38.0234874,12.4252019 37.5349534,10.7561114 36.5601523,9.56000573 C35.5842178,8.365037 34.3464472,7.76812113 32.8468405,7.76812113 C31.2860253,7.76812113 30.0063156,8.36048907 29.0099782,9.54522495 C28.0136409,10.7310978 27.516039,12.4035992 27.516039,14.5684141 C27.516039,16.732092 28.0249758,18.4068674 29.0417159,19.5916033 C30.0584561,20.7752022 31.3268309,21.3675702 32.8468405,21.3675702 Z M32.8468405,23.2231258 C30.7102126,23.2231258 28.9533038,22.4545255 27.5772474,20.919599 C26.2011911,19.3846725 25.5131629,17.2676109 25.5131629,14.5684141 C25.5131629,11.8896831 26.2215939,9.77716941 27.6395893,8.23087305 C29.0564513,6.68571368 30.7929573,5.91256551 32.8468405,5.91256551 C34.8599179,5.91256551 36.5601523,6.68571368 37.9464101,8.23087305 C39.3338013,9.77716941 40.0263634,11.8896831 40.0263634,14.5684141 C40.0263634,17.2880765 39.3530706,19.4096861 38.0076185,20.9355168 C36.6621664,22.4602105 34.9426627,23.2231258 32.8468405,23.2231258 Z M55.4953224,22.758441 L55.4953224,21.1825831 L55.434114,21.1825831 C54.9195097,21.7590333 54.2314815,22.2433879 53.368896,22.6356469 C52.5063104,23.0267689 51.5507787,23.2223299 50.5023008,23.2223299 C48.3464036,23.2223299 46.6257665,22.4389489 45.3415228,20.8733238 C44.0572791,19.3076988 43.415724,17.2065549 43.415724,14.5676182 C43.415724,11.9718869 44.0788154,9.87983894 45.4027312,8.29374819 C46.7277805,6.70652046 48.4280149,5.9129066 50.5023008,5.9129066 C52.4949755,5.9129066 54.0569241,6.59395919 55.1870133,7.95379039 L55.2482217,7.95379039 L55.2482217,0.195021041 L57.2510978,0.195021041 L57.2510978,22.758441 L55.4953224,22.758441 Z M55.2482217,17.7511696 L55.2482217,11.9718869 C55.2482217,10.920178 54.8424324,9.95829074 54.0308539,9.08167714 C53.2192753,8.20506355 52.1469942,7.76846222 50.81061,7.76846222 C49.065036,7.76846222 47.7297853,8.37106301 46.8048578,9.57626458 C45.8810638,10.7814661 45.4186001,12.4460087 45.4186001,14.5676182 C45.4186001,16.7108305 45.8753964,18.3810579 46.7901225,19.5748897 C47.7037151,20.7698584 49.0446332,21.3679113 50.81061,21.3679113 C52.0642495,21.3679113 53.1172613,21.0074878 53.9696454,20.2855038 C54.8220296,19.5657938 55.2482217,18.7210157 55.2482217,17.7511696 Z M74.4150771,17.9361566 L76.109644,18.8639344 C75.5746369,20.1009715 74.7233862,21.1367627 73.551358,21.9701709 C72.3815968,22.8058532 70.9533999,23.2231258 69.2690344,23.2231258 C67.0711981,23.2231258 65.2632822,22.4340599 63.8452868,20.858202 C62.4284248,19.2812071 61.7188603,17.1846111 61.7188603,14.5684141 C61.7188603,11.9510802 62.4125559,9.85448422 63.7988137,8.27748934 C65.1862049,6.70163144 66.9680505,5.91256551 69.145484,5.91256551 C71.3433203,5.91256551 73.1104306,6.67548084 74.4456813,8.20017452 C75.780932,9.72600519 76.4485574,11.8476147 76.4485574,14.5684141 L76.4485574,15.1550972 L63.7534741,15.1550972 C63.7534741,16.8241876 64.2204718,18.2772514 65.1556007,19.5131515 C66.0895961,20.7501886 67.4407157,21.3675702 69.2066925,21.3675702 C69.9060555,21.3675702 70.5430767,21.2754746 71.1177559,21.0901464 C71.6924351,20.9048182 72.1446974,20.7035723 72.4734094,20.4875456 C72.8021214,20.2703819 73.120632,19.9668076 73.4289411,19.5756856 C73.7372503,19.1834266 73.9367445,18.894633 74.0296906,18.7093048 L74.4150771,17.9361566 Z M63.8146825,13.4553082 L74.3844729,13.4553082 C74.3844729,12.7958582 74.2960607,12.1523261 74.1215033,11.5235747 C73.9469459,10.8948233 73.6703744,10.2865376 73.2895219,9.69985459 C72.9098029,9.11317156 72.3600605,8.64473472 71.6414281,8.2934071 C70.9227957,7.94321645 70.0908143,7.76812113 69.145484,7.76812113 C68.2001537,7.76812113 67.3625049,7.96368214 66.6336711,8.35594114 C65.9048373,8.74592618 65.3448935,9.24733551 64.954973,9.85448422 C64.5650526,10.4616329 64.2771463,11.0744666 64.0923875,11.6929851 C63.9076287,12.3115037 63.8146825,12.8993237 63.8146825,13.4553082 Z M80.9166599,22.7587821 L80.9166599,6.3771366 L82.8571941,6.3771366 L82.8571941,8.13945965 L82.919536,8.13945965 C83.2686508,7.45840707 83.7560513,6.94903886 84.3828711,6.60908105 C85.0096908,6.26912325 85.6512459,6.09857586 86.3086699,6.09857586 C86.5761734,6.09857586 86.8278081,6.12472646 87.0635739,6.17589068 C87.2993398,6.22819188 87.4693632,6.27367118 87.5725108,6.31460256 L87.6949276,6.40783513 L87.2948058,8.44758194 C87.0692414,8.28385644 86.6373818,8.19971973 86.0003607,8.19971973 C85.0969695,8.19971973 84.3568008,8.53058167 83.7821216,9.1888946 C83.2074424,9.8494815 82.919536,10.8181907 82.919536,12.0950222 L82.919536,22.7587821 L80.9166599,22.7587821 Z M91.5469786,22.7587821 L91.5469786,6.3771366 L93.5498547,6.3771366 L93.5498547,7.95413149 L93.6110631,7.95413149 C94.0429227,7.35607863 94.7060141,6.86603912 95.5992039,6.48514995 C96.4923936,6.10426077 97.4116537,5.9132477 98.356984,5.9132477 C100.122961,5.9132477 101.57156,6.45899935 102.70165,7.55163964 C103.830605,8.64427993 104.396216,10.1280422 104.396216,12.0017896 L104.396216,22.7587821 L102.39334,22.7587821 L102.39334,12.7442392 C102.39334,11.1172171 102.038558,9.88018003 101.330127,9.03540195 C100.621696,8.19062387 99.5890872,7.76766634 98.2334336,7.76766634 C96.8573773,7.76766634 95.7318221,8.15424043 94.8590352,8.9273886 C93.9862482,9.70053678 93.5498547,10.7772593 93.5498547,12.1575562 L93.5498547,22.7587821 L91.5469786,22.7587821 Z M117.800978,22.7587821 L117.800978,1.12313995 L130.557269,1.12313995 L130.557269,2.97755859 L119.803854,2.97755859 L119.803854,11.4765036 L129.694684,11.4765036 L129.694684,13.2695252 L119.803854,13.2695252 L119.803854,22.7587821 L117.800978,22.7587821 Z M145.625653,17.9361566 L147.32022,18.8639344 C146.785213,20.1009715 145.933962,21.1367627 144.761934,21.9701709 C143.592173,22.8058532 142.163976,23.2231258 140.47961,23.2231258 C138.281774,23.2231258 136.473858,22.4340599 135.055863,20.858202 C133.639001,19.2812071 132.929436,17.1846111 132.929436,14.5684141 C132.929436,11.9510802 133.623132,9.85448422 135.00939,8.27748934 C136.396781,6.70163144 138.178627,5.91256551 140.35606,5.91256551 C142.553896,5.91256551 144.321007,6.67548084 145.656257,8.20017452 C146.991508,9.72600519 147.659133,11.8476147 147.659133,14.5684141 L147.659133,15.1550972 L134.96405,15.1550972 C134.96405,16.8241876 135.431048,18.2772514 136.366177,19.5131515 C137.300172,20.7501886 138.651292,21.3675702 140.417268,21.3675702 C141.116632,21.3675702 141.753653,21.2754746 142.328332,21.0901464 C142.903011,20.9048182 143.355273,20.7035723 143.683985,20.4875456 C144.012697,20.2703819 144.331208,19.9668076 144.639517,19.5756856 C144.947826,19.1834266 145.14732,18.894633 145.240267,18.7093048 L145.625653,17.9361566 Z M135.025259,13.4553082 L145.595049,13.4553082 C145.595049,12.7958582 145.506637,12.1523261 145.332079,11.5235747 C145.157522,10.8948233 144.88095,10.2865376 144.500098,9.69985459 C144.120379,9.11317156 143.570636,8.64473472 142.852004,8.2934071 C142.133372,7.94321645 141.30139,7.76812113 140.35606,7.76812113 C139.41073,7.76812113 138.573081,7.96368214 137.844247,8.35594114 C137.115413,8.74592618 136.555469,9.24733551 136.165549,9.85448422 C135.775629,10.4616329 135.487722,11.0744666 135.302963,11.6929851 C135.118205,12.3115037 135.025259,12.8993237 135.025259,13.4553082 Z M152.127236,22.7587821 L152.127236,6.3771366 L154.06777,6.3771366 L154.06777,8.13945965 L154.130112,8.13945965 C154.479227,7.45840707 154.966627,6.94903886 155.593447,6.60908105 C156.220267,6.26912325 156.861822,6.09857586 157.519246,6.09857586 C157.786749,6.09857586 158.038384,6.12472646 158.27415,6.17589068 C158.509916,6.22819188 158.679939,6.27367118 158.783087,6.31460256 L158.905504,6.40783513 L158.505382,8.44758194 C158.279817,8.28385644 157.847958,8.19971973 157.210937,8.19971973 C156.307545,8.19971973 155.567377,8.53058167 154.992698,9.1888946 C154.418018,9.8494815 154.130112,10.8181907 154.130112,12.0950222 L154.130112,22.7587821 L152.127236,22.7587821 Z M163.219678,18.3385348 L163.219678,8.23075935 L160.939097,8.23075935 L160.939097,6.37634071 L163.280887,6.37634071 L163.280887,2.35824416 L165.222554,2.35824416 L165.222554,6.37634071 L169.228307,6.37634071 L169.228307,8.23075935 L165.222554,8.23075935 L165.222554,18.061111 C165.222554,19.0491489 165.355173,19.7506672 165.622676,20.1622549 C165.889046,20.5749796 166.413852,20.7796365 167.194826,20.7796365 L168.365721,20.7796365 L168.365721,22.7591232 L167.132484,22.7591232 C164.523191,22.7591232 163.219678,21.2855937 163.219678,18.3385348 Z M173.788789,22.7590095 L173.788789,6.377364 L175.791665,6.377364 L175.791665,22.7590095 L173.788789,22.7590095 Z M173.542821,3.68726314 L173.542821,1.12223036 L176.038765,1.12223036 L176.038765,3.68726314 L173.542821,3.68726314 Z M181.583796,22.7590095 L181.583796,0.19445255 L183.586672,0.19445255 L183.586672,22.7590095 L181.583796,22.7590095 Z M189.379938,22.7590095 L189.379938,6.377364 L191.382814,6.377364 L191.382814,22.7590095 L189.379938,22.7590095 Z M189.132837,3.68726314 L189.132837,1.12223036 L191.628781,1.12223036 L191.628781,3.68726314 L189.132837,3.68726314 Z M197.7613,18.3385348 L197.7613,8.23075935 L195.480719,8.23075935 L195.480719,6.37634071 L197.822508,6.37634071 L197.822508,2.35824416 L199.764176,2.35824416 L199.764176,6.37634071 L203.769928,6.37634071 L203.769928,8.23075935 L199.764176,8.23075935 L199.764176,18.061111 C199.764176,19.0491489 199.896794,19.7506672 200.164298,20.1622549 C200.430668,20.5749796 200.955473,20.7796365 201.736448,20.7796365 L202.907342,20.7796365 L202.907342,22.7591232 L201.674106,22.7591232 C199.064813,22.7591232 197.7613,21.2855937 197.7613,18.3385348 Z M208.66887,29.7127951 L211.996795,21.3059457 L206.07998,6.377364 L208.206406,6.377364 L212.951194,18.9569396 L213.013535,18.9569396 L217.759456,6.377364 L219.884749,6.377364 L210.641142,29.7127951 L208.66887,29.7127951 Z M17.6558131,1.12325365 L20.7377713,1.12325365 L20.7377713,22.7588958 L18.7348952,22.7588958 L18.7348952,3.59505385 L18.6725533,3.59505385 L10.8469412,22.7588958 L10.4150817,22.7588958 L2.58833615,3.59505385 L2.52599423,3.59505385 L2.52599423,22.7588958 L0.523118141,22.7588958 L0.523118141,1.12325365 L3.63568052,1.12325365 L10.5998405,18.492937 L10.6621824,18.492937 L17.6558131,1.12325365 Z"
       id="path-1" />
    <mask
       fill="white"
       id="mask-2">
      <use
         height="100%"
         width="100%"
         y="0"
         x="0"
         id="use15"
         xlink:href="#path-1" />
    </mask>
  </defs>
  <use
     height="100%"
     width="100%"
     y="0"
     x="0"
     style="fill:#231f20;fill-rule:evenodd;stroke:none;stroke-width:1"
     xlink:href="#path-1"
     id="Combined-Shape" />
</svg>
