<?xml version="1.0" encoding="utf-8"?>
<!-- Generator: Adobe Illustrator 22.0.1, SVG Export Plug-In . SVG Version: 6.00 Build 0)  -->
<svg version="1.1" id="Layer_1" xmlns="http://www.w3.org/2000/svg" xmlns:xlink="http://www.w3.org/1999/xlink" x="0px" y="0px"
	 viewBox="0 0 792 612" style="enable-background:new 0 0 792 612;" xml:space="preserve">
<style type="text/css">
	.st0{fill:#005CB9;}
	.st1{fill:#2D2A26;}
</style>
<path class="st0" d="M428.8,320.3l26-25.6l32.6,33.1l-40.8,10.6L428.8,320.3z M339.2,326.7l33.1-32.6l25.6,26l-18.1,17.8
	L339.2,326.7z M470.4,279.4l26-25.6l17.8,18.1L503,312.5L470.4,279.4z M387.9,278.7l26-25.6l25.6,26l-26,25.6L387.9,278.7z
	 M313.3,270.3l18.1-17.8l25.6,26l-33.1,32.6L313.3,270.3z M429.5,237.8l26-25.6l25.6,26l-26,25.6L429.5,237.8z M347,237.1l26-25.6
	l25.6,26l-26,25.6L347,237.1z M388.6,196.2l26-25.6l25.6,26l-26,25.6L388.6,196.2z M471.1,196.9l33.1-32.6l10.6,40.8l-18.1,17.8
	L471.1,196.9z M313.8,203.4l11.2-40.6l32.6,33.1l-26,25.6L313.8,203.4z M430.2,155.3l18.1-17.8l40.6,11.2l-33.1,32.6L430.2,155.3z
	 M340.6,147.5l40.8-10.6l17.8,18.1l-26,25.6L340.6,147.5z M388.1,112.6l-77.4,20.1l-21.3,77.1l26.7,27.1L289,263.6L309,341
	l77.1,21.3l27.1-26.7l26.7,27.1l77.4-20.1l21.3-77.1L512,238.5l27.1-26.7L519,134.4L441.9,113l-27.1,26.7L388.1,112.6z"/>
<g>
	<g>
		<path class="st1" d="M257.9,448.8h-9.7v-21.9h8.7c10.6,0,15.9,3.7,15.9,11C272.8,445.2,267.8,448.8,257.9,448.8 M284.7,412.7
			c-5.6-4.7-15.2-7-28.8-7h-30.6v93.7h22.9V470h10.3c12.5,0,21.6-2.7,27.4-8.2c6.6-6.1,9.8-14.2,9.8-24.3
			C295.7,427.1,292.1,418.8,284.7,412.7"/>
	</g>
	<polygon class="st1" points="334.9,405.7 311,405.7 311,499.4 362.6,499.4 362.6,478.2 334.9,478.2 	"/>
	<path class="st1" d="M409.1,466.8l9.8-32l9.7,32H409.1z M409.4,405.7l-37.5,93.7h25.7l4.9-13.6h32.6l4.5,13.6h26l-37.2-93.7H409.4z
		"/>
	<rect x="477.6" y="405.7" class="st1" width="23.9" height="93.7"/>
	<g>
		<path class="st1" d="M556,478.2h-10.3v-51.3h10.4c7.3,0,12.9,2.3,16.9,6.8c3.9,4.5,5.9,10.9,5.9,19.2
			C578.9,469.8,571.2,478.2,556,478.2 M594.2,423.2c-3.2-4.5-7-8.1-11.4-10.8c-7.2-4.5-17.1-6.7-29.5-6.7h-31.5v93.7h36.8
			c13.3,0,24-4.3,32-12.9c8.1-8.6,12.1-20,12.1-34.3C602.8,440.8,599.9,431.2,594.2,423.2"/>
	</g>
</g>
</svg>
