<?xml version="1.0" encoding="utf-8"?>
<!-- Generator: Adobe Illustrator 22.1.0, SVG Export Plug-In . SVG Version: 6.00 Build 0)  -->
<svg version="1.1" id="Layer_1" xmlns="http://www.w3.org/2000/svg" xmlns:xlink="http://www.w3.org/1999/xlink" x="0px" y="0px"
	 viewBox="0 0 559.6 208.7" style="enable-background:new 0 0 559.6 208.7;" xml:space="preserve">
<style type="text/css">
	.st0{fill:#2D2A26;}
	.st1{fill:#005CB9;}
</style>
<g>
	<g>
		<g>
			<path class="st0" d="M271.8,101.7h-8.1V83.4h7.3c8.8,0,13.3,3.1,13.3,9.2C284.2,98.7,280.1,101.7,271.8,101.7 M294.2,71.6
				c-4.7-3.9-12.7-5.9-24-5.9h-25.6v78.2h19.1v-24.5h8.6c10.4,0,18-2.3,22.9-6.8c5.5-5.1,8.2-11.8,8.2-20.3
				C303.3,83.6,300.3,76.7,294.2,71.6"/>
		</g>
		<polygon class="st0" points="336.1,65.7 316.1,65.7 316.1,144 359.2,144 359.2,126.2 336.1,126.2 		"/>
		<path class="st0" d="M398,116.7l8.2-26.7l8.1,26.7H398z M398.2,65.7l-31.3,78.2h21.5l4.1-11.4h27.2l3.8,11.4h21.7l-31.1-78.2
			L398.2,65.7L398.2,65.7z"/>
		<rect x="455.1" y="65.7" class="st0" width="19.9" height="78.2"/>
		<g>
			<path class="st0" d="M520.6,126.2H512V83.4h8.7c6.1,0,10.8,1.9,14.1,5.7c3.3,3.8,4.9,9.1,4.9,16
				C539.7,119.2,533.3,126.2,520.6,126.2 M552.5,80.4c-2.7-3.8-5.8-6.8-9.5-9c-6-3.8-14.2-5.6-24.6-5.6h-26.3V144h30.7
				c11.1,0,20-3.6,26.7-10.8c6.7-7.2,10.1-16.7,10.1-28.6C559.6,95.1,557.2,87,552.5,80.4"/>
		</g>
	</g>
	<path class="st1" d="M116.6,173.4l21.7-21.4l27.2,27.7l-34,8.8L116.6,173.4z M41.8,178.7l27.7-27.2l21.4,21.7l-15.2,14.9
		L41.8,178.7z M151.3,139.3l21.7-21.4l14.9,15.1l-9.4,33.9L151.3,139.3z M82.5,138.7l21.7-21.4l21.4,21.7l-21.7,21.4L82.5,138.7z
		 M20.2,131.7l15.1-14.9l21.4,21.7L29,165.7L20.2,131.7z M117.2,104.5l21.7-21.4l21.4,21.7l-21.7,21.4L117.2,104.5z M48.3,104
		L70,82.6l21.4,21.7l-21.7,21.4L48.3,104z M83,69.8l21.7-21.4l21.4,21.7l-21.7,21.4L83,69.8z M151.9,70.4l27.7-27.2l8.8,34
		l-15.1,14.9L151.9,70.4z M20.6,75.8L30,41.9l27.2,27.7L35.5,91L20.6,75.8z M117.7,35.7l15.1-14.9l33.9,9.4L139,57.4L117.7,35.7z
		 M43,29.2l34-8.8l14.9,15.1L70.2,56.9L43,29.2z M82.7,0L18.1,16.8L0.3,81.1l22.3,22.6L0,126l16.8,64.6l64.3,17.8l22.6-22.3
		l22.3,22.6l64.6-16.8l17.8-64.4l-22.3-22.4l22.6-22.3l-16.8-64.6L127.6,0.4L105,22.7L82.7,0z"/>
</g>
</svg>
