<?xml version="1.0" encoding="utf-8"?>
<!-- Generator: Adobe Illustrator 22.1.0, SVG Export Plug-In . SVG Version: 6.00 Build 0)  -->
<svg version="1.1" id="Layer_1" xmlns="http://www.w3.org/2000/svg" xmlns:xlink="http://www.w3.org/1999/xlink" x="0px" y="0px"
	 viewBox="0 0 377.4 386.8" style="enable-background:new 0 0 377.4 386.8;" xml:space="preserve">
<style type="text/css">
	.st0{fill:#005CB9;}
	.st1{fill:#FFFFFF;}
</style>
<g>
	<path class="st0" d="M203.4,207.7l26-25.6l32.6,33.1l-40.8,10.6L203.4,207.7z M113.9,214.1l33.1-32.6l25.6,26l-18.1,17.8
		L113.9,214.1z M245.1,166.8l26-25.6l17.8,18.1l-11.2,40.6L245.1,166.8z M162.6,166.1l26-25.6l25.6,26l-26,25.6L162.6,166.1z
		 M88,157.7l18.1-17.8l25.6,26l-33.1,32.6L88,157.7z M204.2,125.2l26-25.6l25.6,26l-26,25.6L204.2,125.2z M121.7,124.5l26-25.6
		l25.6,26l-26,25.6L121.7,124.5z M163.3,83.6l26-25.6l25.6,26l-26,25.6L163.3,83.6z M245.8,84.3l33.1-32.6l10.6,40.8l-18.1,17.8
		L245.8,84.3z M88.4,90.8l11.2-40.6l32.6,33.1l-26,25.6L88.4,90.8z M204.9,42.7L223,24.9l40.6,11.2l-33.1,32.6L204.9,42.7z
		 M115.3,34.9l40.8-10.6l17.8,18.1l-26,25.6L115.3,34.9z M162.8,0L85.4,20.1L64.1,97.2l26.7,27.1L63.7,151l20,77.4l77.1,21.3
		l27.1-26.7l26.7,27.1L292,230l21.3-77.1l-26.6-27l27.1-26.7l-20.1-77.4L216.6,0.4l-27.1,26.7L162.8,0z"/>
	<g>
		<g>
			<path class="st1" d="M32.6,336.2h-9.7v-21.9h8.7c10.6,0,15.9,3.7,15.9,11C47.5,332.6,42.5,336.2,32.6,336.2 M59.4,300.1
				c-5.6-4.7-15.2-7-28.8-7H0v93.7h22.9v-29.4h10.3c12.5,0,21.6-2.7,27.4-8.2c6.6-6.1,9.8-14.2,9.8-24.3
				C70.4,314.5,66.8,306.2,59.4,300.1"/>
		</g>
		<polygon class="st1" points="109.6,293.1 85.7,293.1 85.7,386.8 137.3,386.8 137.3,365.6 109.6,365.6 		"/>
		<path class="st1" d="M183.8,354.2l9.8-32l9.7,32H183.8z M184.1,293.1l-37.5,93.7h25.7l4.9-13.6h32.6l4.5,13.6h26l-37.2-93.7H184.1
			z"/>
		<rect x="252.3" y="293.1" class="st1" width="23.9" height="93.7"/>
		<g>
			<path class="st1" d="M330.7,365.6h-10.3v-51.3h10.4c7.3,0,12.9,2.3,16.9,6.8c3.9,4.5,5.9,10.9,5.9,19.2
				C353.6,357.2,345.9,365.6,330.7,365.6 M368.9,310.6c-3.2-4.5-7-8.1-11.4-10.8c-7.2-4.5-17.1-6.7-29.5-6.7h-31.5v93.7h36.8
				c13.3,0,24-4.3,32-12.9c8.1-8.6,12.1-20,12.1-34.3C377.5,328.2,374.6,318.6,368.9,310.6"/>
		</g>
	</g>
</g>
</svg>
